<svg width="753" height="1072" viewBox="0 0 753 1072" fill="none" xmlns="http://www.w3.org/2000/svg">
<path d="M40.3026 112.083C40.3026 112.083 267.579 111.721 367.097 252.746L374.175 206.936C374.175 206.936 571.623 339.506 596.516 484.838L612.006 445.181C612.006 445.181 765.306 653.256 694.143 905.241C694.143 905.241 386.009 942.674 244.247 764.57L277.957 752.567C277.957 752.567 169.625 697.139 90.511 539.899L131.513 532.963C131.513 532.963 23.4331 273.814 40.3026 112.083Z" fill="#64B900"/>
<path d="M66.0805 147.402C310.66 403.232 523.531 687.165 734.84 970.697L659.826 861.135C480.274 609.86 289.615 361.132 66.2023 147.966L66.0805 147.402Z" fill="#3D8709"/>
<path d="M192.929 524.308C223.957 549.191 261.24 565.041 300.683 570.116C340.125 575.19 380.202 569.295 416.511 553.076" stroke="#3D8709" stroke-width="0.5" stroke-miterlimit="10"/>
<path d="M266.072 489.913C282.023 511.062 289.872 537.226 288.197 563.663C298.22 538.324 291.806 503.84 266.072 489.913Z" fill="#3D8709"/>
<path d="M360.114 736.775C427.378 770.812 512.781 795.913 584.859 762.043L584.707 761.338C509.949 782.797 429.166 767.473 360.408 737.449L360.114 736.775Z" fill="#3D8709"/>
<path d="M412.889 672.976C432.45 701.373 440.846 734.1 452.142 765.906C453.917 748.494 450.132 730.967 441.33 715.84C434.387 700.069 424.871 685.563 413.171 672.915L412.889 672.976Z" fill="#3D8709"/>
<path d="M498.663 818.002C517.979 813.831 544.401 793.364 537.595 772.102C533.093 781.169 528.1 789.984 522.638 798.507C515.862 806.452 507.786 813.187 498.754 818.426L498.663 818.002Z" fill="#3D8709"/>
<path d="M144.387 340.538C144.387 340.538 202.902 414.695 298.852 402.535" stroke="#3D8709" stroke-width="0.5" stroke-miterlimit="10"/>
<path d="M190.927 331.225C198.572 347.494 202.415 365.291 202.165 383.265C207.108 374.75 208.696 364.695 206.617 355.07C204.538 345.445 198.943 336.942 190.927 331.225V331.225Z" fill="#3D8709"/>
<path d="M362.448 302.744C362.448 302.744 429.812 409.678 370.766 483.392" stroke="#3D8709" stroke-width="0.5" stroke-miterlimit="10"/>
<path d="M435.837 378.117C424.37 396.153 411.091 412.968 396.206 428.302C406.78 424.381 416.071 417.624 423.061 408.772C430.052 399.921 434.472 389.315 435.837 378.117V378.117Z" fill="#3D8709"/>
<path d="M570.337 527.382C570.337 527.382 677.904 698.848 609.012 794.615" stroke="#3D8709" stroke-width="0.5" stroke-miterlimit="10"/>
<path d="M560.138 587.448C568.18 619.218 590.312 654.736 625.2 660.486C594.406 644.995 577.996 615.474 560.138 587.448Z" fill="#3D8709"/>
<path d="M464.819 609.361C472.616 599.612 478.274 588.331 481.428 576.252C491.94 542.246 498.769 498.703 479.536 467.726C487.3 514.612 488.384 566.779 464.789 609.22L464.819 609.361Z" fill="#3D8709"/>
<path d="M455.066 499.285C457.395 518.267 466.451 542.437 486.489 548.442C472.603 534.024 467.222 515.259 455.066 499.285Z" fill="#3D8709"/>
</svg>
